<?xml version="1.0" encoding="UTF-8" standalone="no"?>
<!DOCTYPE svg PUBLIC "-//W3C//DTD SVG 1.1//EN" "http://www.w3.org/Graphics/SVG/1.1/DTD/svg11.dtd">
<svg width="100%" height="100%" viewBox="0 0 1024 1024" version="1.1" xmlns="http://www.w3.org/2000/svg" xmlns:xlink="http://www.w3.org/1999/xlink" xml:space="preserve" xmlns:serif="http://www.serif.com/" style="fill-rule:evenodd;clip-rule:evenodd;stroke-linejoin:round;stroke-miterlimit:2;">
    <g transform="matrix(5.46943,0,0,5.46943,-768.326,-1199.6)">
        <g transform="matrix(0.791841,0,0,0.791841,133.222,212.074)">
            <circle cx="127.382" cy="127.382" r="117.382" style="fill:rgb(55,41,112);"/>
        </g>
        <g transform="matrix(0.791841,0,0,0.791841,133.222,212.074)">
            <path d="M134.321,46.421L145.43,75.871L109.625,91.216L134.321,46.421Z" style="fill:rgb(187,100,167);"/>
        </g>
        <g id="iconmonstr-gear-11.svg" transform="matrix(4.42496,0,0,4.42496,256.005,335.991)">
            <g transform="matrix(1,0,0,1,-12,-12)">
                <clipPath id="_clip1">
                    <rect x="0" y="0" width="24" height="24"/>
                </clipPath>
                <g clip-path="url(#_clip1)">
                    <path d="M17,10.645L17,8.355C15.83,7.938 15.093,7.822 14.72,6.924C14.347,6.024 14.79,5.412 15.32,4.299L13.702,2.68C12.597,3.205 11.979,3.654 11.076,3.28C10.176,2.907 10.059,2.164 9.645,1L7.355,1C6.943,2.158 6.825,2.907 5.924,3.28L5.923,3.28C5.023,3.654 4.413,3.21 3.298,2.68L1.681,4.299C2.208,5.409 2.654,6.023 2.281,6.924C1.906,7.825 1.158,7.943 -0,8.355L-0,10.644C1.155,11.056 1.907,11.175 2.28,12.075C2.656,12.983 2.199,13.609 1.68,14.7L3.298,16.319C4.405,15.794 5.022,15.345 5.923,15.719L5.924,15.719C6.824,16.092 6.942,16.837 7.355,17.999L9.644,17.999C10.056,16.841 10.174,16.094 11.081,15.717L11.082,15.717C11.976,15.345 12.583,15.788 13.701,16.319L15.319,14.7C14.794,13.593 14.345,12.977 14.718,12.075C15.092,11.176 15.844,11.056 17,10.645ZM8.5,12.334C6.936,12.334 5.667,11.065 5.667,9.5C5.667,7.935 6.936,6.666 8.5,6.666C10.064,6.666 11.333,7.935 11.333,9.5C11.333,11.065 10.064,12.334 8.5,12.334ZM24,16.539L24,15.462C23.45,15.266 23.103,15.211 22.927,14.789C22.751,14.365 22.96,14.078 23.209,13.553L22.447,12.791C21.927,13.039 21.636,13.249 21.212,13.074C20.788,12.899 20.733,12.549 20.538,12.001L19.462,12.001C19.268,12.546 19.212,12.898 18.788,13.074C18.364,13.25 18.077,13.041 17.553,12.791L16.791,13.553C17.039,14.076 17.249,14.365 17.073,14.789C16.897,15.213 16.545,15.268 16,15.462L16,16.539C16.544,16.732 16.897,16.789 17.073,17.212C17.25,17.639 17.035,17.934 16.791,18.448L17.553,19.21C18.074,18.962 18.365,18.752 18.788,18.927C19.212,19.102 19.267,19.453 19.462,20L20.538,20C20.732,19.455 20.788,19.103 21.214,18.926L21.215,18.926C21.636,18.751 21.921,18.96 22.447,19.21L23.209,18.448C22.962,17.927 22.751,17.636 22.927,17.213C23.103,16.79 23.456,16.732 24,16.539ZM20,17.333C19.264,17.333 18.667,16.736 18.667,16C18.667,15.264 19.264,14.667 20,14.667C20.736,14.667 21.333,15.264 21.333,16C21.333,16.736 20.736,17.333 20,17.333ZM16,20.404L16,19.596C15.588,19.449 15.327,19.408 15.195,19.091C15.063,18.774 15.219,18.558 15.407,18.164L14.835,17.593C14.446,17.779 14.228,17.937 13.909,17.805C13.59,17.673 13.55,17.411 13.403,17L12.596,17C12.45,17.409 12.408,17.673 12.09,17.805C11.773,17.937 11.557,17.781 11.164,17.593L10.592,18.164C10.779,18.557 10.936,18.773 10.804,19.091C10.672,19.409 10.408,19.45 9.999,19.596L9.999,20.404C10.407,20.549 10.672,20.592 10.804,20.909C10.937,21.229 10.776,21.451 10.592,21.836L11.164,22.407C11.554,22.221 11.772,22.063 12.09,22.195C12.408,22.327 12.449,22.59 12.596,23L13.403,23C13.549,22.591 13.591,22.327 13.91,22.195L13.911,22.195C14.226,22.064 14.44,22.22 14.835,22.408L15.407,21.837C15.221,21.446 15.063,21.228 15.195,20.91C15.327,20.592 15.592,20.549 16,20.404ZM13,21C12.448,21 12,20.553 12,20C12,19.447 12.448,19 13,19C13.552,19 14,19.447 14,20C14,20.553 13.552,21 13,21Z" style="fill:white;fill-rule:nonzero;"/>
                </g>
            </g>
        </g>
        <g transform="matrix(0.791841,0,0,0.791841,133.222,212.074)">
            <path d="M45.029,126.835C95.181,106.227 146.054,85.69 198.039,65.266C153.236,120.523 100.074,171.216 62.221,205.996C62.221,205.996 73.924,152.696 75.713,144.549C75.848,143.935 75.559,143.305 75.005,143.006C69.837,140.218 45.029,126.835 45.029,126.835Z" style="fill:rgb(111,203,222);"/>
        </g>
    </g>
</svg>
