<?xml version="1.0" encoding="UTF-8" standalone="no"?>
<!DOCTYPE svg PUBLIC "-//W3C//DTD SVG 1.1//EN" "http://www.w3.org/Graphics/SVG/1.1/DTD/svg11.dtd">
<svg width="100%" height="100%" viewBox="0 0 1280 289" version="1.1" xmlns="http://www.w3.org/2000/svg" xmlns:xlink="http://www.w3.org/1999/xlink" xml:space="preserve" xmlns:serif="http://www.serif.com/" style="fill-rule:evenodd;clip-rule:evenodd;stroke-linejoin:round;stroke-miterlimit:2;">
    <g id="Artboard1" transform="matrix(1,0,0,1.06671,0,0)">
        <rect x="0" y="0" width="1280" height="270" style="fill:none;"/>
        <g transform="matrix(1,0,0,0.937461,-2.55795e-13,0)">
            <circle cx="127.382" cy="127.382" r="117.382" style="fill:rgb(55,41,112);"/>
        </g>
        <g transform="matrix(1,0,0,0.937461,0,0)">
            <path d="M134.321,46.421L145.43,75.871L109.625,91.216L134.321,46.421Z" style="fill:rgb(187,100,167);"/>
        </g>
        <g transform="matrix(2.90492,0,0,2.72325,-740.427,-391.49)">
            <g transform="matrix(50,0,0,50,344.786,205.809)">
                <path d="M0.09,-0L0.09,-0.7L0.138,-0.7L0.138,-0.044L0.419,-0.044L0.419,-0L0.09,-0Z" style="fill-rule:nonzero;"/>
            </g>
            <g transform="matrix(50,0,0,50,367.686,205.809)">
                <path d="M0.102,-0.626C0.092,-0.626 0.084,-0.63 0.076,-0.637C0.069,-0.644 0.065,-0.653 0.065,-0.664C0.065,-0.675 0.069,-0.684 0.076,-0.69C0.084,-0.697 0.093,-0.7 0.102,-0.7C0.112,-0.7 0.121,-0.697 0.129,-0.69C0.136,-0.684 0.14,-0.675 0.14,-0.664C0.14,-0.654 0.136,-0.645 0.129,-0.637C0.121,-0.63 0.112,-0.626 0.102,-0.626ZM0.08,-0L0.08,-0.5L0.125,-0.5L0.125,-0L0.08,-0Z" style="fill-rule:nonzero;"/>
            </g>
            <g transform="matrix(50,0,0,50,377.94,205.809)">
                <path d="M0.244,-0L0.203,-0L0.01,-0.5L0.06,-0.5L0.209,-0.102C0.216,-0.083 0.221,-0.065 0.224,-0.05L0.226,-0.05C0.23,-0.07 0.235,-0.087 0.24,-0.1L0.394,-0.5L0.443,-0.5L0.244,-0Z" style="fill-rule:nonzero;"/>
            </g>
            <g transform="matrix(50,0,0,50,400.596,205.809)">
                <path d="M0.091,-0.248C0.091,-0.179 0.107,-0.126 0.138,-0.087C0.17,-0.048 0.214,-0.029 0.269,-0.029C0.325,-0.029 0.38,-0.049 0.433,-0.091L0.433,-0.043C0.381,-0.006 0.324,0.012 0.26,0.012C0.195,0.012 0.143,-0.011 0.104,-0.057C0.064,-0.103 0.044,-0.169 0.044,-0.253C0.044,-0.326 0.065,-0.387 0.106,-0.437C0.148,-0.487 0.202,-0.512 0.268,-0.512C0.33,-0.512 0.378,-0.49 0.411,-0.447C0.444,-0.403 0.461,-0.344 0.461,-0.268L0.461,-0.248L0.091,-0.248ZM0.414,-0.289C0.412,-0.347 0.398,-0.391 0.373,-0.423C0.347,-0.455 0.311,-0.471 0.266,-0.471C0.219,-0.471 0.18,-0.455 0.15,-0.424C0.119,-0.393 0.1,-0.348 0.093,-0.289L0.414,-0.289Z" style="fill-rule:nonzero;"/>
            </g>
            <g transform="matrix(50,0,0,50,425.84,205.809)">
                <path d="M0.697,-0L0.697,-0.497C0.697,-0.509 0.699,-0.543 0.702,-0.6L0.7,-0.6C0.69,-0.574 0.682,-0.553 0.675,-0.539L0.426,-0L0.41,-0L0.16,-0.536C0.152,-0.553 0.144,-0.575 0.137,-0.602L0.135,-0.602C0.137,-0.571 0.138,-0.54 0.138,-0.509L0.138,-0L0.09,-0L0.09,-0.7L0.135,-0.7L0.396,-0.136C0.398,-0.133 0.399,-0.129 0.401,-0.123C0.403,-0.118 0.405,-0.112 0.408,-0.106C0.411,-0.098 0.414,-0.089 0.418,-0.078L0.421,-0.078L0.426,-0.094C0.427,-0.095 0.432,-0.111 0.443,-0.14L0.7,-0.7L0.743,-0.7L0.743,-0L0.697,-0Z" style="fill-rule:nonzero;"/>
            </g>
            <g transform="matrix(50,0,0,50,467.491,205.809)">
                <path d="M0.091,-0.248C0.091,-0.179 0.107,-0.126 0.138,-0.087C0.17,-0.048 0.214,-0.029 0.269,-0.029C0.325,-0.029 0.38,-0.049 0.433,-0.091L0.433,-0.043C0.381,-0.006 0.324,0.012 0.26,0.012C0.195,0.012 0.143,-0.011 0.104,-0.057C0.064,-0.103 0.044,-0.169 0.044,-0.253C0.044,-0.326 0.065,-0.387 0.106,-0.437C0.148,-0.487 0.202,-0.512 0.268,-0.512C0.33,-0.512 0.378,-0.49 0.411,-0.447C0.444,-0.403 0.461,-0.344 0.461,-0.268L0.461,-0.248L0.091,-0.248ZM0.414,-0.289C0.412,-0.347 0.398,-0.391 0.373,-0.423C0.347,-0.455 0.311,-0.471 0.266,-0.471C0.219,-0.471 0.18,-0.455 0.15,-0.424C0.119,-0.393 0.1,-0.348 0.093,-0.289L0.414,-0.289Z" style="fill-rule:nonzero;"/>
            </g>
            <g transform="matrix(50,0,0,50,506.431,205.809)">
                <path d="M0.138,-0.281L0.138,-0L0.09,-0L0.09,-0.7L0.259,-0.7C0.331,-0.7 0.386,-0.684 0.424,-0.65C0.462,-0.617 0.481,-0.568 0.481,-0.504C0.481,-0.439 0.46,-0.385 0.417,-0.344C0.375,-0.302 0.315,-0.281 0.239,-0.281L0.138,-0.281ZM0.138,-0.656L0.138,-0.325L0.238,-0.325C0.301,-0.325 0.349,-0.34 0.382,-0.37C0.415,-0.4 0.431,-0.443 0.431,-0.498C0.431,-0.603 0.371,-0.656 0.25,-0.656L0.138,-0.656Z" style="fill-rule:nonzero;"/>
            </g>
            <g transform="matrix(50,0,0,50,533.628,205.809)">
                <path d="M0.316,-0.453C0.301,-0.464 0.283,-0.469 0.263,-0.469C0.224,-0.469 0.191,-0.449 0.164,-0.408C0.137,-0.368 0.124,-0.31 0.124,-0.235L0.124,-0L0.08,-0L0.08,-0.5L0.124,-0.5L0.124,-0.389L0.126,-0.389C0.137,-0.427 0.155,-0.457 0.18,-0.478C0.205,-0.499 0.234,-0.51 0.266,-0.51C0.285,-0.51 0.301,-0.507 0.316,-0.501L0.316,-0.453Z" style="fill-rule:nonzero;"/>
            </g>
            <g transform="matrix(50,0,0,50,549.131,205.809)">
                <path d="M0.281,0.012C0.208,0.012 0.15,-0.012 0.108,-0.06C0.065,-0.108 0.044,-0.17 0.044,-0.247C0.044,-0.33 0.066,-0.395 0.111,-0.442C0.155,-0.489 0.214,-0.512 0.286,-0.512C0.357,-0.512 0.414,-0.489 0.455,-0.442C0.496,-0.396 0.517,-0.331 0.517,-0.249C0.517,-0.171 0.496,-0.108 0.454,-0.06C0.412,-0.012 0.354,0.012 0.281,0.012ZM0.284,-0.471C0.225,-0.471 0.178,-0.451 0.143,-0.412C0.108,-0.372 0.091,-0.317 0.091,-0.246C0.091,-0.181 0.108,-0.128 0.142,-0.088C0.176,-0.049 0.223,-0.029 0.282,-0.029C0.342,-0.029 0.389,-0.048 0.421,-0.087C0.454,-0.126 0.47,-0.181 0.47,-0.25C0.47,-0.321 0.454,-0.376 0.422,-0.414C0.389,-0.452 0.343,-0.471 0.284,-0.471Z" style="fill-rule:nonzero;"/>
            </g>
            <g transform="matrix(50,0,0,50,590.879,205.809)">
                <path d="M0.28,-0.656L0.28,-0L0.232,-0L0.232,-0.656L0.03,-0.656L0.03,-0.7L0.482,-0.7L0.482,-0.656L0.28,-0.656Z" style="fill-rule:nonzero;"/>
            </g>
            <g transform="matrix(50,0,0,50,608.58,205.809)">
                <path d="M0.281,0.012C0.208,0.012 0.15,-0.012 0.108,-0.06C0.065,-0.108 0.044,-0.17 0.044,-0.247C0.044,-0.33 0.066,-0.395 0.111,-0.442C0.155,-0.489 0.214,-0.512 0.286,-0.512C0.357,-0.512 0.414,-0.489 0.455,-0.442C0.496,-0.396 0.517,-0.331 0.517,-0.249C0.517,-0.171 0.496,-0.108 0.454,-0.06C0.412,-0.012 0.354,0.012 0.281,0.012ZM0.284,-0.471C0.225,-0.471 0.178,-0.451 0.143,-0.412C0.108,-0.372 0.091,-0.317 0.091,-0.246C0.091,-0.181 0.108,-0.128 0.142,-0.088C0.176,-0.049 0.223,-0.029 0.282,-0.029C0.342,-0.029 0.389,-0.048 0.421,-0.087C0.454,-0.126 0.47,-0.181 0.47,-0.25C0.47,-0.321 0.454,-0.376 0.422,-0.414C0.389,-0.452 0.343,-0.471 0.284,-0.471Z" style="fill-rule:nonzero;"/>
            </g>
            <g transform="matrix(50,0,0,50,636.631,205.809)">
                <path d="M0.281,0.012C0.208,0.012 0.15,-0.012 0.108,-0.06C0.065,-0.108 0.044,-0.17 0.044,-0.247C0.044,-0.33 0.066,-0.395 0.111,-0.442C0.155,-0.489 0.214,-0.512 0.286,-0.512C0.357,-0.512 0.414,-0.489 0.455,-0.442C0.496,-0.396 0.517,-0.331 0.517,-0.249C0.517,-0.171 0.496,-0.108 0.454,-0.06C0.412,-0.012 0.354,0.012 0.281,0.012ZM0.284,-0.471C0.225,-0.471 0.178,-0.451 0.143,-0.412C0.108,-0.372 0.091,-0.317 0.091,-0.246C0.091,-0.181 0.108,-0.128 0.142,-0.088C0.176,-0.049 0.223,-0.029 0.282,-0.029C0.342,-0.029 0.389,-0.048 0.421,-0.087C0.454,-0.126 0.47,-0.181 0.47,-0.25C0.47,-0.321 0.454,-0.376 0.422,-0.414C0.389,-0.452 0.343,-0.471 0.284,-0.471Z" style="fill-rule:nonzero;"/>
            </g>
            <g transform="matrix(50,0,0,50,664.683,205.809)">
                <rect x="0.08" y="-0.74" width="0.045" height="0.74" style="fill-rule:nonzero;"/>
            </g>
            <g transform="matrix(50,0,0,50,674.937,205.809)">
                <path d="M0.054,-0.022L0.054,-0.076C0.071,-0.062 0.092,-0.05 0.116,-0.042C0.14,-0.033 0.161,-0.029 0.178,-0.029C0.257,-0.029 0.296,-0.061 0.296,-0.125C0.296,-0.147 0.287,-0.166 0.27,-0.182C0.253,-0.197 0.225,-0.213 0.186,-0.23C0.138,-0.251 0.105,-0.272 0.085,-0.295C0.066,-0.317 0.056,-0.344 0.056,-0.376C0.056,-0.417 0.072,-0.45 0.103,-0.475C0.134,-0.5 0.172,-0.512 0.218,-0.512C0.261,-0.512 0.298,-0.503 0.328,-0.486L0.328,-0.435C0.291,-0.459 0.253,-0.471 0.213,-0.471C0.18,-0.471 0.153,-0.463 0.133,-0.446C0.113,-0.428 0.103,-0.406 0.103,-0.379C0.103,-0.355 0.109,-0.336 0.122,-0.321C0.135,-0.306 0.163,-0.289 0.206,-0.27C0.258,-0.247 0.294,-0.225 0.313,-0.205C0.333,-0.185 0.343,-0.158 0.343,-0.125C0.343,-0.085 0.328,-0.052 0.298,-0.027C0.268,-0.001 0.227,0.012 0.175,0.012C0.127,0.012 0.086,0.001 0.054,-0.022Z" style="fill-rule:nonzero;"/>
            </g>
        </g>
        <g transform="matrix(1.40628,0,0,1.31833,-70.0196,-513.463)">
            <g transform="matrix(37.5,0,0,37.5,238.616,571.669)">
                <path d="M0.185,-0.7L0.355,-0.7C0.404,-0.7 0.444,-0.687 0.473,-0.66C0.502,-0.633 0.517,-0.597 0.517,-0.551C0.517,-0.5 0.503,-0.458 0.475,-0.425C0.448,-0.391 0.41,-0.37 0.362,-0.361L0.362,-0.359C0.398,-0.351 0.426,-0.334 0.446,-0.308C0.465,-0.282 0.475,-0.25 0.475,-0.213C0.475,-0.145 0.454,-0.092 0.413,-0.055C0.371,-0.018 0.312,-0 0.235,-0L0.037,-0L0.185,-0.7ZM0.278,-0.385C0.338,-0.385 0.385,-0.399 0.417,-0.428C0.45,-0.457 0.467,-0.496 0.467,-0.546C0.467,-0.581 0.456,-0.609 0.434,-0.627C0.413,-0.646 0.383,-0.656 0.344,-0.656L0.225,-0.656L0.166,-0.385L0.278,-0.385ZM0.23,-0.044C0.36,-0.044 0.425,-0.099 0.425,-0.209C0.425,-0.251 0.411,-0.284 0.382,-0.307C0.354,-0.329 0.313,-0.341 0.26,-0.341L0.157,-0.341L0.095,-0.044L0.23,-0.044Z" style="fill-rule:nonzero;"/>
            </g>
            <g transform="matrix(37.5,0,0,37.5,258.868,571.669)">
                <path d="M0.127,-0.5L0.172,-0.5L0.154,-0.382L0.156,-0.382C0.178,-0.426 0.201,-0.459 0.226,-0.48C0.251,-0.502 0.28,-0.512 0.314,-0.512C0.333,-0.512 0.351,-0.508 0.367,-0.5L0.359,-0.454L0.357,-0.454C0.34,-0.465 0.322,-0.471 0.305,-0.471C0.269,-0.471 0.233,-0.448 0.198,-0.401C0.162,-0.354 0.137,-0.294 0.121,-0.221L0.074,-0L0.029,-0L0.098,-0.325C0.114,-0.396 0.123,-0.454 0.127,-0.5Z" style="fill-rule:nonzero;"/>
            </g>
            <g transform="matrix(37.5,0,0,37.5,271.099,571.669)">
                <path d="M0.215,0.012C0.16,0.012 0.117,-0.005 0.086,-0.039C0.056,-0.073 0.04,-0.121 0.04,-0.181C0.04,-0.242 0.052,-0.298 0.075,-0.349C0.099,-0.401 0.131,-0.441 0.171,-0.469C0.212,-0.498 0.256,-0.512 0.304,-0.512C0.36,-0.512 0.402,-0.495 0.433,-0.46C0.463,-0.426 0.478,-0.379 0.478,-0.32C0.478,-0.258 0.467,-0.202 0.444,-0.151C0.421,-0.1 0.389,-0.06 0.349,-0.031C0.309,-0.002 0.264,0.012 0.215,0.012ZM0.219,-0.029C0.258,-0.029 0.293,-0.041 0.326,-0.066C0.358,-0.09 0.384,-0.125 0.403,-0.169C0.422,-0.213 0.431,-0.262 0.431,-0.315C0.431,-0.366 0.42,-0.405 0.396,-0.431C0.373,-0.458 0.341,-0.471 0.299,-0.471C0.261,-0.471 0.226,-0.459 0.193,-0.434C0.16,-0.409 0.134,-0.375 0.115,-0.331C0.096,-0.287 0.087,-0.238 0.087,-0.185C0.087,-0.136 0.099,-0.098 0.122,-0.07C0.146,-0.043 0.178,-0.029 0.219,-0.029Z" style="fill-rule:nonzero;"/>
            </g>
            <g transform="matrix(37.5,0,0,37.5,290.527,571.669)">
                <path d="M0.069,-0.5L0.115,-0.5L0.147,-0.096L0.147,-0.084L0.146,-0.059L0.15,-0.059C0.153,-0.071 0.159,-0.085 0.167,-0.101L0.379,-0.5L0.409,-0.5L0.439,-0.087L0.437,-0.059L0.441,-0.059L0.449,-0.081L0.458,-0.101L0.662,-0.5L0.711,-0.5L0.448,-0L0.408,-0L0.377,-0.374L0.376,-0.399L0.378,-0.419L0.376,-0.419L0.373,-0.411L0.156,-0L0.115,-0L0.069,-0.5Z" style="fill-rule:nonzero;"/>
            </g>
            <g transform="matrix(37.5,0,0,37.5,315.905,571.669)">
                <path d="M0.023,-0.07C0.04,-0.057 0.059,-0.048 0.08,-0.04C0.102,-0.033 0.123,-0.029 0.143,-0.029C0.181,-0.029 0.211,-0.037 0.232,-0.053C0.253,-0.069 0.263,-0.092 0.263,-0.124C0.263,-0.145 0.257,-0.163 0.246,-0.177C0.234,-0.192 0.212,-0.209 0.18,-0.229C0.142,-0.252 0.116,-0.274 0.101,-0.294C0.086,-0.314 0.078,-0.338 0.078,-0.366C0.078,-0.408 0.094,-0.443 0.124,-0.47C0.155,-0.498 0.194,-0.512 0.241,-0.512C0.258,-0.512 0.278,-0.51 0.301,-0.505C0.324,-0.501 0.343,-0.495 0.358,-0.487L0.348,-0.44C0.316,-0.461 0.279,-0.471 0.237,-0.471C0.205,-0.471 0.178,-0.462 0.157,-0.444C0.136,-0.426 0.125,-0.402 0.125,-0.372C0.125,-0.349 0.131,-0.33 0.142,-0.315C0.154,-0.301 0.175,-0.284 0.207,-0.265C0.244,-0.243 0.271,-0.221 0.286,-0.2C0.302,-0.18 0.31,-0.156 0.31,-0.129C0.31,-0.086 0.295,-0.052 0.264,-0.026C0.233,-0.001 0.192,0.012 0.14,0.012C0.092,0.012 0.05,0.001 0.013,-0.022L0.023,-0.07Z" style="fill-rule:nonzero;"/>
            </g>
            <g transform="matrix(37.5,0,0,37.5,330.462,571.669)">
                <path d="M0.087,-0.193C0.087,-0.142 0.1,-0.102 0.126,-0.073C0.152,-0.043 0.189,-0.029 0.237,-0.029C0.278,-0.029 0.324,-0.042 0.374,-0.07L0.365,-0.023C0.322,0 0.277,0.012 0.23,0.012C0.17,0.012 0.123,-0.006 0.09,-0.043C0.057,-0.079 0.04,-0.131 0.04,-0.197C0.04,-0.255 0.052,-0.308 0.076,-0.356C0.101,-0.405 0.133,-0.443 0.174,-0.47C0.215,-0.498 0.258,-0.512 0.304,-0.512C0.347,-0.512 0.381,-0.501 0.407,-0.48C0.434,-0.458 0.447,-0.429 0.447,-0.392C0.447,-0.335 0.419,-0.293 0.362,-0.266C0.306,-0.239 0.214,-0.225 0.088,-0.223L0.087,-0.193ZM0.094,-0.264C0.198,-0.264 0.275,-0.274 0.325,-0.293C0.375,-0.312 0.4,-0.344 0.4,-0.387C0.4,-0.443 0.366,-0.471 0.297,-0.471C0.248,-0.471 0.205,-0.452 0.168,-0.413C0.131,-0.375 0.106,-0.325 0.094,-0.264Z" style="fill-rule:nonzero;"/>
            </g>
            <g transform="matrix(37.5,0,0,37.5,347.967,571.669)">
                <path d="M0.078,-0.111L0.13,-0.111L0.03,0.121L-0.012,0.121L0.078,-0.111Z" style="fill-rule:nonzero;"/>
            </g>
            <g transform="matrix(37.5,0,0,37.5,366.607,571.669)">
                <path d="M0.023,-0.07C0.04,-0.057 0.059,-0.048 0.08,-0.04C0.102,-0.033 0.123,-0.029 0.143,-0.029C0.181,-0.029 0.211,-0.037 0.232,-0.053C0.253,-0.069 0.263,-0.092 0.263,-0.124C0.263,-0.145 0.257,-0.163 0.246,-0.177C0.234,-0.192 0.212,-0.209 0.18,-0.229C0.142,-0.252 0.116,-0.274 0.101,-0.294C0.086,-0.314 0.078,-0.338 0.078,-0.366C0.078,-0.408 0.094,-0.443 0.124,-0.47C0.155,-0.498 0.194,-0.512 0.241,-0.512C0.258,-0.512 0.278,-0.51 0.301,-0.505C0.324,-0.501 0.343,-0.495 0.358,-0.487L0.348,-0.44C0.316,-0.461 0.279,-0.471 0.237,-0.471C0.205,-0.471 0.178,-0.462 0.157,-0.444C0.136,-0.426 0.125,-0.402 0.125,-0.372C0.125,-0.349 0.131,-0.33 0.142,-0.315C0.154,-0.301 0.175,-0.284 0.207,-0.265C0.244,-0.243 0.271,-0.221 0.286,-0.2C0.302,-0.18 0.31,-0.156 0.31,-0.129C0.31,-0.086 0.295,-0.052 0.264,-0.026C0.233,-0.001 0.192,0.012 0.14,0.012C0.092,0.012 0.05,0.001 0.013,-0.022L0.023,-0.07Z" style="fill-rule:nonzero;"/>
            </g>
            <g transform="matrix(37.5,0,0,37.5,381.164,571.669)">
                <path d="M0.087,-0.193C0.087,-0.142 0.1,-0.102 0.126,-0.073C0.152,-0.043 0.189,-0.029 0.237,-0.029C0.278,-0.029 0.324,-0.042 0.374,-0.07L0.365,-0.023C0.322,0 0.277,0.012 0.23,0.012C0.17,0.012 0.123,-0.006 0.09,-0.043C0.057,-0.079 0.04,-0.131 0.04,-0.197C0.04,-0.255 0.052,-0.308 0.076,-0.356C0.101,-0.405 0.133,-0.443 0.174,-0.47C0.215,-0.498 0.258,-0.512 0.304,-0.512C0.347,-0.512 0.381,-0.501 0.407,-0.48C0.434,-0.458 0.447,-0.429 0.447,-0.392C0.447,-0.335 0.419,-0.293 0.362,-0.266C0.306,-0.239 0.214,-0.225 0.088,-0.223L0.087,-0.193ZM0.094,-0.264C0.198,-0.264 0.275,-0.274 0.325,-0.293C0.375,-0.312 0.4,-0.344 0.4,-0.387C0.4,-0.443 0.366,-0.471 0.297,-0.471C0.248,-0.471 0.205,-0.452 0.168,-0.413C0.131,-0.375 0.106,-0.325 0.094,-0.264Z" style="fill-rule:nonzero;"/>
            </g>
            <g transform="matrix(37.5,0,0,37.5,398.669,571.669)">
                <path d="M0.361,-0C0.362,-0.036 0.369,-0.09 0.382,-0.16L0.38,-0.16C0.35,-0.104 0.318,-0.061 0.286,-0.032C0.253,-0.003 0.217,0.012 0.178,0.012C0.134,0.012 0.1,-0.003 0.076,-0.034C0.052,-0.066 0.04,-0.109 0.04,-0.166C0.04,-0.231 0.053,-0.29 0.08,-0.343C0.106,-0.396 0.142,-0.438 0.189,-0.468C0.235,-0.497 0.286,-0.512 0.342,-0.512C0.384,-0.512 0.435,-0.506 0.494,-0.494L0.429,-0.179C0.424,-0.154 0.419,-0.124 0.415,-0.087C0.41,-0.05 0.407,-0.021 0.407,-0L0.361,-0ZM0.442,-0.46C0.407,-0.467 0.373,-0.471 0.338,-0.471C0.291,-0.471 0.249,-0.458 0.21,-0.433C0.172,-0.408 0.141,-0.372 0.12,-0.326C0.098,-0.28 0.087,-0.229 0.087,-0.171C0.087,-0.076 0.12,-0.029 0.187,-0.029C0.213,-0.029 0.242,-0.042 0.272,-0.068C0.302,-0.094 0.33,-0.129 0.357,-0.175C0.383,-0.221 0.401,-0.268 0.412,-0.316L0.442,-0.46Z" style="fill-rule:nonzero;"/>
            </g>
            <g transform="matrix(37.5,0,0,37.5,418.279,571.669)">
                <path d="M0.127,-0.5L0.172,-0.5L0.154,-0.382L0.156,-0.382C0.178,-0.426 0.201,-0.459 0.226,-0.48C0.251,-0.502 0.28,-0.512 0.314,-0.512C0.333,-0.512 0.351,-0.508 0.367,-0.5L0.359,-0.454L0.357,-0.454C0.34,-0.465 0.322,-0.471 0.305,-0.471C0.269,-0.471 0.233,-0.448 0.198,-0.401C0.162,-0.354 0.137,-0.294 0.121,-0.221L0.074,-0L0.029,-0L0.098,-0.325C0.114,-0.396 0.123,-0.454 0.127,-0.5Z" style="fill-rule:nonzero;"/>
            </g>
            <g transform="matrix(37.5,0,0,37.5,430.511,571.669)">
                <path d="M0.214,0.012C0.16,0.012 0.118,-0.005 0.087,-0.041C0.056,-0.076 0.04,-0.125 0.04,-0.186C0.04,-0.247 0.052,-0.302 0.075,-0.353C0.099,-0.403 0.131,-0.442 0.172,-0.47C0.213,-0.498 0.258,-0.512 0.306,-0.512C0.329,-0.512 0.349,-0.51 0.367,-0.505C0.385,-0.5 0.404,-0.491 0.423,-0.478L0.411,-0.428C0.382,-0.457 0.346,-0.471 0.302,-0.471C0.262,-0.471 0.226,-0.459 0.192,-0.434C0.158,-0.409 0.132,-0.375 0.113,-0.332C0.094,-0.288 0.085,-0.24 0.085,-0.188C0.085,-0.139 0.097,-0.1 0.12,-0.071C0.144,-0.043 0.177,-0.029 0.219,-0.029C0.241,-0.029 0.261,-0.033 0.281,-0.042C0.3,-0.05 0.322,-0.063 0.346,-0.081L0.334,-0.025C0.309,-0.011 0.288,-0.001 0.271,0.004C0.253,0.01 0.234,0.012 0.214,0.012Z" style="fill-rule:nonzero;"/>
            </g>
            <g transform="matrix(37.5,0,0,37.5,445.855,571.669)">
                <path d="M0.186,-0.74L0.231,-0.74L0.15,-0.359L0.152,-0.359C0.214,-0.461 0.283,-0.512 0.359,-0.512C0.441,-0.512 0.482,-0.466 0.482,-0.375C0.482,-0.365 0.477,-0.333 0.468,-0.28L0.409,-0L0.364,-0L0.423,-0.287C0.432,-0.331 0.436,-0.359 0.436,-0.37C0.436,-0.438 0.407,-0.471 0.35,-0.471C0.325,-0.471 0.295,-0.46 0.262,-0.437C0.229,-0.414 0.2,-0.385 0.174,-0.348C0.149,-0.312 0.132,-0.273 0.123,-0.233L0.073,-0L0.028,-0L0.186,-0.74Z" style="fill-rule:nonzero;"/>
            </g>
            <g transform="matrix(37.5,0,0,37.5,476.342,571.669)">
                <path d="M0.361,-0C0.362,-0.036 0.369,-0.09 0.382,-0.16L0.38,-0.16C0.35,-0.104 0.318,-0.061 0.286,-0.032C0.253,-0.003 0.217,0.012 0.178,0.012C0.134,0.012 0.1,-0.003 0.076,-0.034C0.052,-0.066 0.04,-0.109 0.04,-0.166C0.04,-0.231 0.053,-0.29 0.08,-0.343C0.106,-0.396 0.142,-0.438 0.189,-0.468C0.235,-0.497 0.286,-0.512 0.342,-0.512C0.384,-0.512 0.435,-0.506 0.494,-0.494L0.429,-0.179C0.424,-0.154 0.419,-0.124 0.415,-0.087C0.41,-0.05 0.407,-0.021 0.407,-0L0.361,-0ZM0.442,-0.46C0.407,-0.467 0.373,-0.471 0.338,-0.471C0.291,-0.471 0.249,-0.458 0.21,-0.433C0.172,-0.408 0.141,-0.372 0.12,-0.326C0.098,-0.28 0.087,-0.229 0.087,-0.171C0.087,-0.076 0.12,-0.029 0.187,-0.029C0.213,-0.029 0.242,-0.042 0.272,-0.068C0.302,-0.094 0.33,-0.129 0.357,-0.175C0.383,-0.221 0.401,-0.268 0.412,-0.316L0.442,-0.46Z" style="fill-rule:nonzero;"/>
            </g>
            <g transform="matrix(37.5,0,0,37.5,495.953,571.669)">
                <path d="M0.127,-0.5L0.172,-0.5L0.148,-0.358L0.15,-0.358C0.213,-0.461 0.283,-0.512 0.359,-0.512C0.402,-0.512 0.433,-0.501 0.453,-0.479C0.473,-0.458 0.483,-0.424 0.483,-0.378C0.483,-0.367 0.482,-0.354 0.479,-0.338C0.476,-0.323 0.453,-0.21 0.409,-0L0.364,-0L0.423,-0.287C0.432,-0.331 0.436,-0.359 0.436,-0.37C0.436,-0.438 0.407,-0.471 0.35,-0.471C0.325,-0.471 0.295,-0.46 0.262,-0.437C0.229,-0.414 0.2,-0.385 0.174,-0.348C0.149,-0.312 0.132,-0.273 0.123,-0.233L0.073,-0L0.028,-0L0.105,-0.361C0.116,-0.416 0.124,-0.463 0.127,-0.5Z" style="fill-rule:nonzero;"/>
            </g>
            <g transform="matrix(37.5,0,0,37.5,516.167,571.669)">
                <path d="M0.361,-0C0.362,-0.039 0.369,-0.092 0.381,-0.159L0.379,-0.159C0.348,-0.102 0.317,-0.059 0.284,-0.031C0.252,-0.002 0.216,0.012 0.177,0.012C0.133,0.012 0.099,-0.003 0.076,-0.034C0.052,-0.066 0.04,-0.11 0.04,-0.167C0.04,-0.232 0.053,-0.291 0.08,-0.344C0.107,-0.397 0.143,-0.439 0.19,-0.468C0.236,-0.497 0.286,-0.512 0.341,-0.512C0.371,-0.512 0.407,-0.507 0.449,-0.496L0.501,-0.74L0.546,-0.74L0.423,-0.158C0.421,-0.147 0.417,-0.122 0.413,-0.083C0.409,-0.044 0.407,-0.016 0.407,-0L0.361,-0ZM0.441,-0.454C0.406,-0.465 0.371,-0.471 0.336,-0.471C0.291,-0.471 0.249,-0.458 0.21,-0.433C0.172,-0.408 0.142,-0.372 0.12,-0.327C0.098,-0.281 0.087,-0.231 0.087,-0.175C0.087,-0.125 0.095,-0.088 0.111,-0.064C0.128,-0.041 0.153,-0.029 0.187,-0.029C0.213,-0.029 0.242,-0.043 0.274,-0.07C0.306,-0.098 0.334,-0.133 0.359,-0.178C0.384,-0.222 0.402,-0.268 0.412,-0.316L0.441,-0.454Z" style="fill-rule:nonzero;"/>
            </g>
            <g transform="matrix(37.5,0,0,37.5,546.087,571.669)">
                <path d="M0.127,-0.5L0.172,-0.5L0.148,-0.358L0.15,-0.358C0.214,-0.461 0.28,-0.512 0.349,-0.512C0.389,-0.512 0.417,-0.5 0.435,-0.476C0.452,-0.452 0.461,-0.412 0.461,-0.358C0.492,-0.408 0.524,-0.446 0.56,-0.472C0.595,-0.499 0.63,-0.512 0.664,-0.512C0.739,-0.512 0.776,-0.468 0.776,-0.379C0.776,-0.357 0.771,-0.324 0.762,-0.28L0.703,-0L0.658,-0L0.717,-0.287C0.726,-0.333 0.73,-0.363 0.73,-0.378C0.73,-0.44 0.705,-0.471 0.655,-0.471C0.629,-0.471 0.601,-0.459 0.57,-0.436C0.539,-0.412 0.511,-0.381 0.486,-0.344C0.461,-0.306 0.445,-0.269 0.438,-0.235L0.388,-0L0.343,-0L0.402,-0.287C0.411,-0.329 0.415,-0.356 0.415,-0.37C0.415,-0.403 0.409,-0.428 0.398,-0.445C0.387,-0.462 0.368,-0.471 0.34,-0.471C0.313,-0.471 0.284,-0.459 0.253,-0.433C0.221,-0.408 0.193,-0.377 0.169,-0.34C0.146,-0.302 0.13,-0.267 0.123,-0.233L0.073,-0L0.028,-0L0.105,-0.361C0.116,-0.416 0.124,-0.463 0.127,-0.5Z" style="fill-rule:nonzero;"/>
            </g>
            <g transform="matrix(37.5,0,0,37.5,577.288,571.669)">
                <path d="M0.215,0.012C0.16,0.012 0.117,-0.005 0.086,-0.039C0.056,-0.073 0.04,-0.121 0.04,-0.181C0.04,-0.242 0.052,-0.298 0.075,-0.349C0.099,-0.401 0.131,-0.441 0.171,-0.469C0.212,-0.498 0.256,-0.512 0.304,-0.512C0.36,-0.512 0.402,-0.495 0.433,-0.46C0.463,-0.426 0.478,-0.379 0.478,-0.32C0.478,-0.258 0.467,-0.202 0.444,-0.151C0.421,-0.1 0.389,-0.06 0.349,-0.031C0.309,-0.002 0.264,0.012 0.215,0.012ZM0.219,-0.029C0.258,-0.029 0.293,-0.041 0.326,-0.066C0.358,-0.09 0.384,-0.125 0.403,-0.169C0.422,-0.213 0.431,-0.262 0.431,-0.315C0.431,-0.366 0.42,-0.405 0.396,-0.431C0.373,-0.458 0.341,-0.471 0.299,-0.471C0.261,-0.471 0.226,-0.459 0.193,-0.434C0.16,-0.409 0.134,-0.375 0.115,-0.331C0.096,-0.287 0.087,-0.238 0.087,-0.185C0.087,-0.136 0.099,-0.098 0.122,-0.07C0.146,-0.043 0.178,-0.029 0.219,-0.029Z" style="fill-rule:nonzero;"/>
            </g>
            <g transform="matrix(37.5,0,0,37.5,596.715,571.669)">
                <path d="M0.127,-0.5L0.172,-0.5L0.154,-0.382L0.156,-0.382C0.178,-0.426 0.201,-0.459 0.226,-0.48C0.251,-0.502 0.28,-0.512 0.314,-0.512C0.333,-0.512 0.351,-0.508 0.367,-0.5L0.359,-0.454L0.357,-0.454C0.34,-0.465 0.322,-0.471 0.305,-0.471C0.269,-0.471 0.233,-0.448 0.198,-0.401C0.162,-0.354 0.137,-0.294 0.121,-0.221L0.074,-0L0.029,-0L0.098,-0.325C0.114,-0.396 0.123,-0.454 0.127,-0.5Z" style="fill-rule:nonzero;"/>
            </g>
            <g transform="matrix(37.5,0,0,37.5,608.947,571.669)">
                <path d="M0.087,-0.193C0.087,-0.142 0.1,-0.102 0.126,-0.073C0.152,-0.043 0.189,-0.029 0.237,-0.029C0.278,-0.029 0.324,-0.042 0.374,-0.07L0.365,-0.023C0.322,0 0.277,0.012 0.23,0.012C0.17,0.012 0.123,-0.006 0.09,-0.043C0.057,-0.079 0.04,-0.131 0.04,-0.197C0.04,-0.255 0.052,-0.308 0.076,-0.356C0.101,-0.405 0.133,-0.443 0.174,-0.47C0.215,-0.498 0.258,-0.512 0.304,-0.512C0.347,-0.512 0.381,-0.501 0.407,-0.48C0.434,-0.458 0.447,-0.429 0.447,-0.392C0.447,-0.335 0.419,-0.293 0.362,-0.266C0.306,-0.239 0.214,-0.225 0.088,-0.223L0.087,-0.193ZM0.094,-0.264C0.198,-0.264 0.275,-0.274 0.325,-0.293C0.375,-0.312 0.4,-0.344 0.4,-0.387C0.4,-0.443 0.366,-0.471 0.297,-0.471C0.248,-0.471 0.205,-0.452 0.168,-0.413C0.131,-0.375 0.106,-0.325 0.094,-0.264Z" style="fill-rule:nonzero;"/>
            </g>
            <g transform="matrix(37.5,0,0,37.5,636.761,571.669)">
                <path d="M0.069,-0.5L0.115,-0.5L0.147,-0.096L0.147,-0.084L0.146,-0.059L0.15,-0.059C0.153,-0.071 0.159,-0.085 0.167,-0.101L0.379,-0.5L0.409,-0.5L0.439,-0.087L0.437,-0.059L0.441,-0.059L0.449,-0.081L0.458,-0.101L0.662,-0.5L0.711,-0.5L0.448,-0L0.408,-0L0.377,-0.374L0.376,-0.399L0.378,-0.419L0.376,-0.419L0.373,-0.411L0.156,-0L0.115,-0L0.069,-0.5Z" style="fill-rule:nonzero;"/>
            </g>
            <g transform="matrix(37.5,0,0,37.5,662.139,571.669)">
                <path d="M0.129,-0.5L0.174,-0.5L0.099,-0.145C0.091,-0.106 0.087,-0.078 0.087,-0.06C0.087,-0.041 0.097,-0.031 0.118,-0.031C0.132,-0.031 0.146,-0.034 0.159,-0.039L0.151,-0.001C0.135,0.006 0.119,0.01 0.103,0.01C0.062,0.01 0.041,-0.012 0.041,-0.057C0.041,-0.072 0.042,-0.087 0.045,-0.103C0.048,-0.118 0.076,-0.25 0.129,-0.5ZM0.186,-0.626C0.176,-0.626 0.167,-0.63 0.16,-0.637C0.153,-0.644 0.149,-0.653 0.149,-0.664C0.149,-0.674 0.153,-0.683 0.16,-0.69C0.168,-0.697 0.176,-0.7 0.186,-0.7C0.196,-0.7 0.205,-0.697 0.213,-0.69C0.22,-0.684 0.224,-0.675 0.224,-0.664C0.224,-0.654 0.22,-0.645 0.213,-0.637C0.205,-0.63 0.196,-0.626 0.186,-0.626Z" style="fill-rule:nonzero;"/>
            </g>
            <g transform="matrix(37.5,0,0,37.5,669.976,571.669)">
                <path d="M0.139,-0.459L0.048,-0.459L0.057,-0.5L0.147,-0.5L0.175,-0.63L0.223,-0.645L0.192,-0.5L0.326,-0.5L0.316,-0.459L0.184,-0.459L0.117,-0.145C0.111,-0.114 0.108,-0.092 0.108,-0.078C0.108,-0.063 0.111,-0.051 0.118,-0.043C0.124,-0.035 0.135,-0.031 0.151,-0.031C0.165,-0.031 0.191,-0.039 0.23,-0.056L0.22,-0.013C0.208,-0.007 0.194,-0.001 0.178,0.003C0.162,0.008 0.15,0.01 0.141,0.01C0.088,0.01 0.062,-0.019 0.062,-0.075C0.062,-0.096 0.065,-0.12 0.072,-0.147L0.139,-0.459Z" style="fill-rule:nonzero;"/>
            </g>
            <g transform="matrix(37.5,0,0,37.5,681.109,571.669)">
                <path d="M0.186,-0.74L0.231,-0.74L0.15,-0.359L0.152,-0.359C0.214,-0.461 0.283,-0.512 0.359,-0.512C0.441,-0.512 0.482,-0.466 0.482,-0.375C0.482,-0.365 0.477,-0.333 0.468,-0.28L0.409,-0L0.364,-0L0.423,-0.287C0.432,-0.331 0.436,-0.359 0.436,-0.37C0.436,-0.438 0.407,-0.471 0.35,-0.471C0.325,-0.471 0.295,-0.46 0.262,-0.437C0.229,-0.414 0.2,-0.385 0.174,-0.348C0.149,-0.312 0.132,-0.273 0.123,-0.233L0.073,-0L0.028,-0L0.186,-0.74Z" style="fill-rule:nonzero;"/>
            </g>
            <g transform="matrix(37.5,0,0,37.5,711.596,571.669)">
                <path d="M0.087,-0.193C0.087,-0.142 0.1,-0.102 0.126,-0.073C0.152,-0.043 0.189,-0.029 0.237,-0.029C0.278,-0.029 0.324,-0.042 0.374,-0.07L0.365,-0.023C0.322,0 0.277,0.012 0.23,0.012C0.17,0.012 0.123,-0.006 0.09,-0.043C0.057,-0.079 0.04,-0.131 0.04,-0.197C0.04,-0.255 0.052,-0.308 0.076,-0.356C0.101,-0.405 0.133,-0.443 0.174,-0.47C0.215,-0.498 0.258,-0.512 0.304,-0.512C0.347,-0.512 0.381,-0.501 0.407,-0.48C0.434,-0.458 0.447,-0.429 0.447,-0.392C0.447,-0.335 0.419,-0.293 0.362,-0.266C0.306,-0.239 0.214,-0.225 0.088,-0.223L0.087,-0.193ZM0.094,-0.264C0.198,-0.264 0.275,-0.274 0.325,-0.293C0.375,-0.312 0.4,-0.344 0.4,-0.387C0.4,-0.443 0.366,-0.471 0.297,-0.471C0.248,-0.471 0.205,-0.452 0.168,-0.413C0.131,-0.375 0.106,-0.325 0.094,-0.264Z" style="fill-rule:nonzero;"/>
            </g>
            <g transform="matrix(37.5,0,0,37.5,729.101,571.669)">
                <path d="M0.361,-0C0.362,-0.036 0.369,-0.09 0.382,-0.16L0.38,-0.16C0.35,-0.104 0.318,-0.061 0.286,-0.032C0.253,-0.003 0.217,0.012 0.178,0.012C0.134,0.012 0.1,-0.003 0.076,-0.034C0.052,-0.066 0.04,-0.109 0.04,-0.166C0.04,-0.231 0.053,-0.29 0.08,-0.343C0.106,-0.396 0.142,-0.438 0.189,-0.468C0.235,-0.497 0.286,-0.512 0.342,-0.512C0.384,-0.512 0.435,-0.506 0.494,-0.494L0.429,-0.179C0.424,-0.154 0.419,-0.124 0.415,-0.087C0.41,-0.05 0.407,-0.021 0.407,-0L0.361,-0ZM0.442,-0.46C0.407,-0.467 0.373,-0.471 0.338,-0.471C0.291,-0.471 0.249,-0.458 0.21,-0.433C0.172,-0.408 0.141,-0.372 0.12,-0.326C0.098,-0.28 0.087,-0.229 0.087,-0.171C0.087,-0.076 0.12,-0.029 0.187,-0.029C0.213,-0.029 0.242,-0.042 0.272,-0.068C0.302,-0.094 0.33,-0.129 0.357,-0.175C0.383,-0.221 0.401,-0.268 0.412,-0.316L0.442,-0.46Z" style="fill-rule:nonzero;"/>
            </g>
            <g transform="matrix(37.5,0,0,37.5,748.711,571.669)">
                <path d="M0.023,-0.07C0.04,-0.057 0.059,-0.048 0.08,-0.04C0.102,-0.033 0.123,-0.029 0.143,-0.029C0.181,-0.029 0.211,-0.037 0.232,-0.053C0.253,-0.069 0.263,-0.092 0.263,-0.124C0.263,-0.145 0.257,-0.163 0.246,-0.177C0.234,-0.192 0.212,-0.209 0.18,-0.229C0.142,-0.252 0.116,-0.274 0.101,-0.294C0.086,-0.314 0.078,-0.338 0.078,-0.366C0.078,-0.408 0.094,-0.443 0.124,-0.47C0.155,-0.498 0.194,-0.512 0.241,-0.512C0.258,-0.512 0.278,-0.51 0.301,-0.505C0.324,-0.501 0.343,-0.495 0.358,-0.487L0.348,-0.44C0.316,-0.461 0.279,-0.471 0.237,-0.471C0.205,-0.471 0.178,-0.462 0.157,-0.444C0.136,-0.426 0.125,-0.402 0.125,-0.372C0.125,-0.349 0.131,-0.33 0.142,-0.315C0.154,-0.301 0.175,-0.284 0.207,-0.265C0.244,-0.243 0.271,-0.221 0.286,-0.2C0.302,-0.18 0.31,-0.156 0.31,-0.129C0.31,-0.086 0.295,-0.052 0.264,-0.026C0.233,-0.001 0.192,0.012 0.14,0.012C0.092,0.012 0.05,0.001 0.013,-0.022L0.023,-0.07Z" style="fill-rule:nonzero;"/>
            </g>
            <g transform="matrix(37.5,0,0,37.5,763.268,571.669)">
                <path d="M0.087,-0.193C0.087,-0.142 0.1,-0.102 0.126,-0.073C0.152,-0.043 0.189,-0.029 0.237,-0.029C0.278,-0.029 0.324,-0.042 0.374,-0.07L0.365,-0.023C0.322,0 0.277,0.012 0.23,0.012C0.17,0.012 0.123,-0.006 0.09,-0.043C0.057,-0.079 0.04,-0.131 0.04,-0.197C0.04,-0.255 0.052,-0.308 0.076,-0.356C0.101,-0.405 0.133,-0.443 0.174,-0.47C0.215,-0.498 0.258,-0.512 0.304,-0.512C0.347,-0.512 0.381,-0.501 0.407,-0.48C0.434,-0.458 0.447,-0.429 0.447,-0.392C0.447,-0.335 0.419,-0.293 0.362,-0.266C0.306,-0.239 0.214,-0.225 0.088,-0.223L0.087,-0.193ZM0.094,-0.264C0.198,-0.264 0.275,-0.274 0.325,-0.293C0.375,-0.312 0.4,-0.344 0.4,-0.387C0.4,-0.443 0.366,-0.471 0.297,-0.471C0.248,-0.471 0.205,-0.452 0.168,-0.413C0.131,-0.375 0.106,-0.325 0.094,-0.264Z" style="fill-rule:nonzero;"/>
            </g>
            <g transform="matrix(37.5,0,0,37.5,780.773,571.669)">
                <path d="M0.07,0.009C0.059,0.009 0.049,0.005 0.042,-0.003C0.035,-0.01 0.031,-0.02 0.031,-0.031C0.031,-0.042 0.035,-0.052 0.042,-0.059C0.049,-0.066 0.059,-0.07 0.07,-0.07C0.081,-0.07 0.09,-0.066 0.098,-0.059C0.106,-0.052 0.11,-0.042 0.11,-0.031C0.11,-0.02 0.106,-0.01 0.098,-0.003C0.09,0.005 0.081,0.009 0.07,0.009Z" style="fill-rule:nonzero;"/>
            </g>
        </g>
        <g id="iconmonstr-gear-11.svg" transform="matrix(5.58819,0,0,5.23871,155.061,146.705)">
            <g transform="matrix(1,0,0,1,-12,-12)">
                <clipPath id="_clip1">
                    <rect x="0" y="0" width="24" height="24"/>
                </clipPath>
                <g clip-path="url(#_clip1)">
                    <path d="M17,10.645L17,8.355C15.83,7.938 15.093,7.822 14.72,6.924C14.347,6.024 14.79,5.412 15.32,4.299L13.702,2.68C12.597,3.205 11.979,3.654 11.076,3.28C10.176,2.907 10.059,2.164 9.645,1L7.355,1C6.943,2.158 6.825,2.907 5.924,3.28L5.923,3.28C5.023,3.654 4.413,3.21 3.298,2.68L1.681,4.299C2.208,5.409 2.654,6.023 2.281,6.924C1.906,7.825 1.158,7.943 -0,8.355L-0,10.644C1.155,11.056 1.907,11.175 2.28,12.075C2.656,12.983 2.199,13.609 1.68,14.7L3.298,16.319C4.405,15.794 5.022,15.345 5.923,15.719L5.924,15.719C6.824,16.092 6.942,16.837 7.355,17.999L9.644,17.999C10.056,16.841 10.174,16.094 11.081,15.717L11.082,15.717C11.976,15.345 12.583,15.788 13.701,16.319L15.319,14.7C14.794,13.593 14.345,12.977 14.718,12.075C15.092,11.176 15.844,11.056 17,10.645ZM8.5,12.334C6.936,12.334 5.667,11.065 5.667,9.5C5.667,7.935 6.936,6.666 8.5,6.666C10.064,6.666 11.333,7.935 11.333,9.5C11.333,11.065 10.064,12.334 8.5,12.334ZM24,16.539L24,15.462C23.45,15.266 23.103,15.211 22.927,14.789C22.751,14.365 22.96,14.078 23.209,13.553L22.447,12.791C21.927,13.039 21.636,13.249 21.212,13.074C20.788,12.899 20.733,12.549 20.538,12.001L19.462,12.001C19.268,12.546 19.212,12.898 18.788,13.074C18.364,13.25 18.077,13.041 17.553,12.791L16.791,13.553C17.039,14.076 17.249,14.365 17.073,14.789C16.897,15.213 16.545,15.268 16,15.462L16,16.539C16.544,16.732 16.897,16.789 17.073,17.212C17.25,17.639 17.035,17.934 16.791,18.448L17.553,19.21C18.074,18.962 18.365,18.752 18.788,18.927C19.212,19.102 19.267,19.453 19.462,20L20.538,20C20.732,19.455 20.788,19.103 21.214,18.926L21.215,18.926C21.636,18.751 21.921,18.96 22.447,19.21L23.209,18.448C22.962,17.927 22.751,17.636 22.927,17.213C23.103,16.79 23.456,16.732 24,16.539ZM20,17.333C19.264,17.333 18.667,16.736 18.667,16C18.667,15.264 19.264,14.667 20,14.667C20.736,14.667 21.333,15.264 21.333,16C21.333,16.736 20.736,17.333 20,17.333ZM16,20.404L16,19.596C15.588,19.449 15.327,19.408 15.195,19.091C15.063,18.774 15.219,18.558 15.407,18.164L14.835,17.593C14.446,17.779 14.228,17.937 13.909,17.805C13.59,17.673 13.55,17.411 13.403,17L12.596,17C12.45,17.409 12.408,17.673 12.09,17.805C11.773,17.937 11.557,17.781 11.164,17.593L10.592,18.164C10.779,18.557 10.936,18.773 10.804,19.091C10.672,19.409 10.408,19.45 9.999,19.596L9.999,20.404C10.407,20.549 10.672,20.592 10.804,20.909C10.937,21.229 10.776,21.451 10.592,21.836L11.164,22.407C11.554,22.221 11.772,22.063 12.09,22.195C12.408,22.327 12.449,22.59 12.596,23L13.403,23C13.549,22.591 13.591,22.327 13.91,22.195L13.911,22.195C14.226,22.064 14.44,22.22 14.835,22.408L15.407,21.837C15.221,21.446 15.063,21.228 15.195,20.91C15.327,20.592 15.592,20.549 16,20.404ZM13,21C12.448,21 12,20.553 12,20C12,19.447 12.448,19 13,19C13.552,19 14,19.447 14,20C14,20.553 13.552,21 13,21Z" style="fill:white;fill-rule:nonzero;"/>
                </g>
            </g>
        </g>
        <g transform="matrix(1,0,0,0.937461,0,0)">
            <path d="M45.029,126.835C95.181,106.227 146.054,85.69 198.039,65.266C153.236,120.523 100.074,171.216 62.221,205.996C62.221,205.996 71.806,162.343 74.953,148.01C75.538,145.347 74.287,142.618 71.887,141.324C63.502,136.8 45.029,126.835 45.029,126.835Z" style="fill:rgb(111,203,222);"/>
        </g>
    </g>
</svg>
